<?xml version="1.0" standalone="no"?>
<!DOCTYPE svg PUBLIC "-//W3C//DTD SVG 20010904//EN"
 "http://www.w3.org/TR/2001/REC-SVG-20010904/DTD/svg10.dtd">
<svg version="1.0" xmlns="http://www.w3.org/2000/svg"
 width="512.000000pt" height="512.000000pt" viewBox="0 0 512.000000 512.000000"
 preserveAspectRatio="xMidYMid meet">
<metadata>
Created by potrace 1.14, written by Peter Selinger 2001-2017
</metadata>
<g transform="translate(0.000000,512.000000) scale(0.100000,-0.100000)"
fill="#000000" stroke="none">
<path d="M2400 5089 c-134 -36 -184 -62 -303 -156 -101 -80 -153 -102 -262
-109 -106 -7 -158 -19 -231 -55 -232 -114 -344 -418 -239 -647 26 -57 24 -58
-34 -5 -14 12 -50 36 -81 52 -246 131 -565 31 -684 -214 -14 -27 -38 -79 -54
-115 -35 -77 -88 -135 -166 -179 -212 -121 -346 -360 -344 -609 2 -100 17
-172 58 -277 40 -98 47 -180 25 -265 -26 -99 -26 -100 -27 -181 -2 -284 251
-516 543 -497 l73 5 -49 -25 c-72 -36 -166 -135 -202 -212 -71 -149 -71 -299
-1 -450 25 -52 52 -86 139 -170 121 -118 140 -146 164 -251 59 -248 231 -442
461 -519 95 -32 99 -32 269 -34 176 -1 207 -8 292 -62 55 -35 149 -85 158 -83
3 0 31 -5 63 -12 180 -37 395 53 500 210 44 66 80 153 84 201 3 39 18 39 18 0
0 -37 35 -132 68 -185 43 -67 124 -139 203 -177 165 -81 323 -75 485 19 158
91 140 86 334 88 151 2 185 5 245 25 251 81 419 259 485 515 29 109 52 154
107 206 134 125 171 168 201 230 35 73 41 97 49 191 5 63 -8 169 -26 207 -5 9
-19 38 -32 66 -30 63 -130 165 -192 197 l-48 24 88 -3 c141 -4 250 35 354 125
150 132 203 323 149 531 -28 108 -24 179 19 286 46 114 60 191 56 314 -3 119
-22 189 -83 306 -45 86 -172 217 -255 264 -80 45 -137 106 -170 182 -61 136
-82 173 -130 225 -180 197 -503 215 -701 39 -46 -41 -51 -43 -34 -12 6 12 13
27 15 32 1 6 9 30 18 55 20 54 23 194 5 260 -37 137 -142 269 -262 328 -75 37
-124 48 -236 56 -120 9 -166 30 -273 121 -71 61 -191 121 -286 144 -99 24
-235 24 -323 0z"/>
</g>
</svg>
